HIERARCHY
ROOT Hips
{
    OFFSET 0.000000 0.000000 0.000000
    CHANNELS 6 Xposition Yposition Zposition Zrotation Xrotation Yrotation
    JOINT Spine
    {
        OFFSET -0.000000 8.339920 0.000000
        CHANNELS 3 Zrotation Xrotation Yrotation
        JOINT Spine1
        {
            OFFSET -0.000000 25.214485 0.000000
            CHANNELS 3 Zrotation Xrotation Yrotation
            JOINT Neck
            {
                OFFSET -0.000000 25.110935 2.282812
                CHANNELS 3 Zrotation Xrotation Yrotation
                JOINT Head
                {
                    OFFSET -0.000000 14.238888 -2.034127
                    CHANNELS 3 Zrotation Xrotation Yrotation
                    End Site
                    {
                        OFFSET -0.000000 25.426584 0.000000
                    }
                }
            }
            JOINT LeftShoulder
            {
                OFFSET 4.025024 23.158985 -0.185822
                CHANNELS 3 Zrotation Xrotation Yrotation
                JOINT LeftArm
                {
                    OFFSET 11.674057 0.000000 0.000000
                    CHANNELS 3 Zrotation Xrotation Yrotation
                    JOINT LeftForeArm
                    {
                        OFFSET 31.688633 0.000000 0.000000
                        CHANNELS 3 Zrotation Xrotation Yrotation
                        JOINT LeftHand
                        {
                            OFFSET 29.704493 0.000000 0.000000
                            CHANNELS 3 Zrotation Xrotation Yrotation
                            End Site
                            {
                                OFFSET 15.255952 0.000000 0.000000
                            }
                        }
                    }
                }
            }
            JOINT RightShoulder
            {
                OFFSET -4.099539 23.158985 -0.185822
                CHANNELS 3 Zrotation Xrotation Yrotation
                JOINT RightArm
                {
                    OFFSET -11.674057 0.000000 0.000000
                    CHANNELS 3 Zrotation Xrotation Yrotation
                    JOINT RightForeArm
                    {
                        OFFSET -31.688633 0.000000 0.000000
                        CHANNELS 3 Zrotation Xrotation Yrotation
                        JOINT RightHand
                        {
                            OFFSET -29.704493 0.000000 0.000000
                            CHANNELS 3 Zrotation Xrotation Yrotation
                            End Site
                            {
                                OFFSET -15.255952 0.000000 0.000000
                            }
                        }
                    }
                }
            }
        }
    }
    JOINT LeftUpLeg
    {
        OFFSET 10.170634 0.000000 0.000000
        CHANNELS 3 Zrotation Xrotation Yrotation
        JOINT LeftLeg
        {
            OFFSET -0.000000 -41.352962 0.000000
            CHANNELS 3 Zrotation Xrotation Yrotation
            JOINT LeftFoot
            {
                OFFSET -0.000000 -47.535004 0.000000
                CHANNELS 3 Zrotation Xrotation Yrotation
                JOINT LeftToeBase
                {
                    OFFSET -0.000000 -6.610912 15.255952
                    CHANNELS 3 Zrotation Xrotation Yrotation
                    End Site
                    {
                        OFFSET -0.000000 0.000000 4.068254
                    }
                }
            }
        }
    }
    JOINT RightUpLeg
    {
        OFFSET -10.170634 0.000000 0.000000
        CHANNELS 3 Zrotation Xrotation Yrotation
        JOINT RightLeg
        {
            OFFSET -0.000000 -41.352962 0.000000
            CHANNELS 3 Zrotation Xrotation Yrotation
            JOINT RightFoot
            {
                OFFSET -0.000000 -47.535004 0.000000
                CHANNELS 3 Zrotation Xrotation Yrotation
                JOINT RightToeBase
                {
                    OFFSET -0.000000 -6.610912 15.255952
                    CHANNELS 3 Zrotation Xrotation Yrotation
                    End Site
                    {
                        OFFSET -0.000000 0.000000 4.068254
                    }
                }
            }
        }
    }
}
MOTION
Frames:    8
Frame Time:    0.008333
35.789829    94.495567    50.702225    -0.644342    0.650387    90.066956    -0.216321    -5.996094    -0.125401    0.470706    2.492455    -0.124932    -3.560395    30.077253    -0.755370    4.643013    -6.757856    -0.340873    14.006216    0.523843    -4.388721    -21.759781    -10.342197    4.295374    4.301128    -14.128912    1.070361    -7.983634    -14.030851    -2.024414    -17.537035    1.173182    -3.920508    21.110632    -2.154378    3.405494    -4.197341    -4.930293    3.361143    -13.650546    -5.203488    3.319829    0.843681    5.050144    -4.940441    -0.848681    0.068686    7.293291    -0.004159    -5.083163    11.491432    0.000000    0.000000    0.000000    3.649100    6.216938    3.603432    -1.779071    -3.032304    -0.542004    -4.219983    -3.602566    -9.423896    0.000000    0.000000    0.000000    
35.785217    94.488609    50.758438    -0.636597    0.656538    90.032906    -0.197065    -5.955077    -0.104607    0.461639    2.392658    -0.104150    -3.517996    30.194407    -0.762461    4.556664    -6.795890    -0.362576    13.970674    0.333797    -4.521302    -21.706692    -10.153071    4.504774    4.295879    -14.094818    1.037818    -7.867959    -13.995564    -2.053640    -17.504539    1.187486    -3.901370    20.979864    -2.226904    3.398577    -4.056573    -4.888814    3.379058    -13.835415    -5.170654    3.317597    0.874025    5.061205    -5.005077    -0.863210    0.065720    7.380338    0.024096    -5.121356    11.510167    0.000000    0.000000    0.000000    3.647706    6.299111    3.686912    -1.740331    -3.191803    -0.607029    -4.276137    -3.533507    -9.405431    0.000000    0.000000    0.000000    
35.769825    94.485222    50.810875    -0.666124    0.661286    90.005539    -0.142060    -5.951142    -0.116189    0.414383    2.301464    -0.117685    -3.542508    30.159233    -0.730183    4.501655    -6.608849    -0.349255    13.898518    0.354413    -4.455166    -21.561489    -10.155997    4.479312    4.187557    -13.974174    1.058803    -7.775092    -13.870750    -2.137438    -17.504585    1.157383    -3.840187    20.955669    -2.202217    3.406254    -4.080335    -4.859124    3.393558    -13.833342    -5.134945    3.278183    0.898218    5.028359    -5.076046    -0.872437    0.062630    7.511883    0.052343    -5.135671    11.496872    0.000000    0.000000    0.000000    3.634767    6.315127    3.713922    -1.681558    -3.288469    -0.571380    -4.310101    -3.499632    -9.425320    0.000000    0.000000    0.000000    
35.773468    94.475876    50.861435    -0.652024    0.649068    89.982590    -0.087625    -5.941748    -0.131602    0.390847    2.262972    -0.135153    -3.624326    30.194120    -0.679192    4.528638    -6.562619    -0.305137    13.868823    0.417809    -4.408997    -21.531511    -10.039972    4.475420    4.177186    -13.917007    1.033925    -7.738114    -13.810696    -2.176551    -17.513708    1.090437    -3.782934    20.926628    -2.081875    3.414953    -4.111495    -4.861414    3.375325    -13.832418    -5.143894    3.335765    0.929957    5.053534    -5.053314    -0.862388    0.059338    7.526151    0.078836    -5.176723    11.501204    0.000000    0.000000    0.000000    3.645741    6.392480    3.659800    -1.632310    -3.399250    -0.411917    -4.333486    -3.461916    -9.495071    0.000000    0.000000    0.000000    
35.775585    94.464333    50.909180    -0.654698    0.639152    89.950157    -0.042777    -5.971948    -0.156736    0.387996    2.266622    -0.162583    -3.798070    30.254408    -0.586061    4.651800    -6.603531    -0.208325    13.842403    0.434558    -4.359735    -21.533653    -9.805359    4.538276    4.196973    -13.951745    0.947978    -7.994206    -13.842160    -2.112483    -17.541506    1.082662    -3.674199    20.911240    -2.088098    3.396086    -4.131815    -4.878994    3.424758    -13.871727    -5.154897    3.291509    0.955775    5.073922    -5.009250    -0.846321    0.030915    7.520025    0.102049    -5.218420    11.503822    0.000000    0.000000    0.000000    3.651848    6.457517    3.706471    -1.587438    -3.523996    -0.405250    -4.366280    -3.432855    -9.513651    0.000000    0.000000    0.000000    
35.789116    94.446556    50.951088    -0.638573    0.629224    89.926231    -0.000629    -5.991645    -0.185341    0.401065    2.261804    -0.193138    -3.880974    30.297771    -0.516076    4.618455    -6.585653    -0.156069    13.869271    0.689237    -4.237081    -21.619379    -9.930885    4.389573    4.213793    -13.858546    0.905311    -7.502683    -13.755877    -2.120234    -17.556824    1.121647    -3.612615    20.868893    -2.134441    3.474963    -4.151961    -4.863998    3.422406    -13.920609    -5.137508    3.264460    0.963789    5.137377    -4.971557    -0.803649    -0.028214    7.529233    0.117841    -5.255485    11.499392    0.000000    0.000000    0.000000    3.658159    6.561383    3.728349    -1.549538    -3.678197    -0.445399    -4.419947    -3.405666    -9.457350    0.000000    0.000000    0.000000    
35.792496    94.437531    50.993336    -0.640522    0.604947    89.900192    0.043863    -6.012468    -0.211900    0.429189    2.229759    -0.222609    -4.014624    30.389433    -0.450165    4.661263    -6.622813    -0.099799    13.816496    0.791164    -4.171096    -21.592957    -9.918385    4.362542    4.243493    -13.752568    0.880618    -7.647622    -13.644815    -2.147366    -17.589087    1.140452    -3.536035    20.904016    -2.062770    3.537702    -4.264070    -4.985096    3.425793    -13.997859    -5.230063    3.041751    0.993818    5.177794    -4.930347    -0.776294    -0.088578    7.525539    0.147873    -5.267773    11.523077    0.000000    0.000000    0.000000    3.671509    6.632404    3.821064    -1.498673    -3.807036    -0.440192    -4.458619    -3.349552    -9.519952    0.000000    0.000000    0.000000    
35.799786    94.425186    51.028778    -0.639305    0.606185    89.896294    0.071080    -6.035603    -0.240140    0.417484    2.211092    -0.252058    -4.058047    30.440254    -0.394799    4.658090    -6.606998    -0.051650    13.725588    0.897317    -4.124763    -21.529795    -9.790432    4.345587    4.331960    -13.724850    0.847726    -7.725480    -13.615707    -2.138271    -17.538649    1.189912    -3.490248    20.770161    -2.258000    3.597684    -4.225723    -4.751432    3.419478    -13.837574    -5.030996    3.351155    0.994583    5.234264    -4.958600    -0.738869    -0.178640    7.562870    0.165154    -5.248702    11.530540    0.000000    0.000000    0.000000    3.669553    6.694948    3.874830    -1.474100    -3.911276    -0.486668    -4.468919    -3.328676    -9.505874    0.000000    0.000000    0.000000    
